Coordinates
version=1
nRows=13
nColumns=36
inDegrees=yes

Units are S.I. units (second, meters, Newtons, ...)
If the header above contains a line with 'inDegrees', this indicates whether rotational values are in degrees (yes) or radians (no).

endheader
time	pelvis_tilt	pelvis_list	pelvis_rotation	pelvis_tx	pelvis_ty	pelvis_tz	hip_flexion_r	hip_adduction_r	hip_rotation_r	knee_angle_r	knee_angle_r_beta	ankle_angle_r	subtalar_angle_r	mtp_angle_r	hip_flexion_l	hip_adduction_l	hip_rotation_l	knee_angle_l	knee_angle_l_beta	ankle_angle_l	subtalar_angle_l	mtp_angle_l	lumbar_extension	lumbar_bending	lumbar_rotation	arm_flex_r	arm_add_r	arm_rot_r	elbow_flex_r	pro_sup_r	arm_flex_l	arm_add_l	arm_rot_l	elbow_flex_l	pro_sup_l
      0.39000000	     -2.39224246	     -1.69611232	     -0.14206381	      0.23063857	      1.13799566	     -0.25312921	      5.75927415	      5.49337761	     -3.69476121	      9.64129928	      0.16827242	      4.69745443	     -9.06014685	     -7.49999987	     25.13813117	     -5.98957568	     -1.84467509	     41.76526739	      0.72894143	      6.23588274	    -17.80971101	     -7.49999987	     -7.71602451	      7.36412164	     -2.38886921	     -3.81510990	     -7.93574583	     -6.46482973	     31.34438158	     94.16947497	     -6.92001210	     -4.09618577	     -9.61642343	     31.86077750	     94.06414316
      0.40000000	     -2.35837510	     -1.68476489	     -0.22463721	      0.23965432	      1.13829538	     -0.25252494	      4.98039304	      5.49537704	     -3.48569632	      9.06698742	      0.15824878	      4.77233608	     -8.81887164	     -7.49999987	     25.41862399	     -5.83828257	     -2.25698796	     39.96569433	      0.69753295	      5.96458203	    -17.90153478	     -7.49999987	     -7.83204415	      7.31170102	     -2.41599218	     -3.78230315	     -7.94842952	     -6.62368126	     31.47232830	     94.30527871	     -6.78403782	     -4.20727935	     -9.42898364	     32.04022829	     94.35472096
      0.41000000	     -2.09292201	     -1.71308225	     -0.26848488	      0.24836123	      1.13894770	     -0.25189503	      3.95805772	      5.52064974	     -3.30498340	      8.48950275	      0.14816977	      4.84062992	     -8.45698457	     -7.49999987	     25.50174749	     -5.69154263	     -2.56959989	     38.22816029	      0.66720726	      5.64609995	    -17.98824864	     -7.49999987	     -8.39351462	      7.30494735	     -2.32021052	     -3.76941332	     -7.97622231	     -7.08252743	     31.82369394	     94.27641290	     -6.53989894	     -4.32569394	     -9.02488334	     32.50404403	     94.75235571
      0.42000000	     -2.21373163	     -1.76634409	     -0.31660352	      0.25713535	      1.13898600	     -0.25119000	      3.39019692	      5.56989670	     -3.04557335	      7.97307677	      0.13915644	      4.68303646	     -8.31768025	     -7.49999987	     26.06331014	     -5.56279296	     -2.83542248	     36.59442197	      0.63869315	      5.38096934	    -17.79399961	     -7.49999987	     -8.33613662	      7.32558219	     -2.42650335	     -3.73183144	     -8.03100960	     -7.18905007	     31.84217729	     94.39353193	     -6.39301779	     -4.36649132	     -8.96882377	     32.50968708	     94.97053233
      0.43000000	     -2.26176364	     -1.79316051	     -0.40608269	      0.26565533	      1.13907265	     -0.25051561	      2.76428009	      5.58223162	     -2.71938861	      7.48438306	      0.13062713	      4.54828729	     -8.21011968	     -7.49999987	     26.54395980	     -5.38571197	     -3.06364246	     34.96050966	      0.61017600	      5.18672791	    -17.43983703	     -7.49999987	     -8.45117365	      7.30611408	     -2.47452257	     -3.64021986	     -8.09262687	     -7.29891292	     31.90092127	     94.47902433	     -6.21772349	     -4.40761223	     -8.91769851	     32.62095201	     95.17341202
      0.44000000	     -2.28022578	     -1.80749467	     -0.51447795	      0.27394149	      1.13894517	     -0.24993699	      2.13272033	      5.57974667	     -2.36545377	      7.05403180	      0.12311608	      4.39055464	     -8.11761482	     -7.49999987	     26.99758489	     -5.17426053	     -3.23554461	     33.34951221	      0.58205879	      5.06139688	    -16.87197388	     -7.49999987	     -8.64542778	      7.25340209	     -2.51816255	     -3.54395457	     -8.14207668	     -7.38702433	     31.95685011	     94.54607069	     -6.02764280	     -4.45994877	     -8.88890208	     32.77179154	     95.35482001
      0.45000000	     -2.22773114	     -1.79694150	     -0.68008284	      0.28192560	      1.13855769	     -0.24942716	      1.45216347	      5.56269964	     -1.93355191	      6.71996083	      0.11728544	      4.27062161	     -8.05937116	     -7.49999987	     27.36332950	     -4.93946069	     -3.38923391	     31.77521421	      0.55458211	      5.13310247	    -16.01040055	     -7.49999987	     -9.00077941	      7.12928286	     -2.51079198	     -3.36714570	     -8.21477086	     -7.48232431	     32.04751318	     94.54090152	     -5.80700824	     -4.48955755	     -8.86908557	     33.02789791	     95.50794338
      0.46000000	     -2.28142442	     -1.87417933	     -0.89086080	      0.28978766	      1.13747406	     -0.24893735	      0.91076673	      5.68620736	     -1.25910679	      6.51738825	      0.11374988	      3.89227140	     -8.38490119	     -7.49999987	     27.90081792	     -4.82263034	     -3.47552390	     30.38690052	      0.53035146	      5.23978830	    -15.19084740	     -7.49999987	     -9.20281022	      7.13862600	     -2.46567223	     -3.18449761	     -8.27781303	     -7.55711687	     31.95654408	     93.35904781	     -5.49254517	     -4.49156331	     -8.79120137	     33.07240276	     94.55446205
      0.47000000	     -2.14866609	     -1.75199647	     -1.10082897	      0.29791823	      1.13653943	     -0.24832392	      0.17003248	      5.62844315	     -0.74882384	      6.50853034	      0.11359528	      3.82270781	     -8.29833100	     -7.49999987	     28.08713704	     -4.51450704	     -3.61251875	     28.86135885	      0.50372574	      5.36119852	    -14.06372433	     -7.49999987	     -9.65450348	      6.81219296	     -2.44506270	     -2.99131449	     -8.30461347	     -7.38633697	     31.92619449	     92.73265717	     -5.23520585	     -4.60185317	     -8.62304341	     33.36770973	     94.27106315
      0.48000000	     -2.14774643	     -1.65176403	     -1.28080344	      0.30647443	      1.13522558	     -0.24765844	     -0.43782504	      5.65041859	     -0.42546846	      6.66184385	      0.11627111	      3.75725703	     -7.86520245	     -7.49999987	     28.43316526	     -4.22016377	     -3.56150653	     27.49847503	      0.47993893	      5.21494321	    -13.48985746	     -7.49999987	     -9.83749069	      6.49117589	     -2.51255524	     -2.81509705	     -8.32759344	     -7.30913273	     31.78394865	     92.36787558	     -4.98229967	     -4.72174005	     -8.58893835	     33.45978819	     94.17778225
      0.49000000	     -1.99164346	     -1.45624717	     -1.45566459	      0.31572163	      1.13426141	     -0.24677026	     -1.26824067	      5.60506521	     -0.45150682	      6.92594303	      0.12088051	      3.92203409	     -6.58423617	     -7.49999987	     28.49856894	     -3.88196827	     -3.62214193	     26.11904711	      0.45586337	      5.07451919	    -12.79069747	     -7.49999987	    -10.19617024	      6.01209430	     -2.67036976	     -2.59211625	     -8.33034814	     -7.05110886	     31.67677550	     92.68524601	     -4.88797777	     -4.83179004	     -9.02286285	     33.95836254	     95.73084722
      0.50000000	     -1.94144866	     -1.20085638	     -1.69029011	      0.32549146	      1.13326302	     -0.24553695	     -2.01591868	      5.57515420	     -0.09468152	      7.26457205	      0.12679070	      3.65506838	     -5.81653552	     -7.49999987	     28.59736821	     -3.55080839	     -3.75128679	     24.76716254	      0.43226853	      4.90608090	    -12.21566252	     -7.49999987	    -10.35813368	      5.41811794	     -2.74016864	     -2.49218593	     -8.20922494	     -7.14381873	     31.52707298	     92.91959323	     -4.77471272	     -4.95494912	     -9.54864483	     34.26352845	     97.29200554
      0.51000000	     -1.82532799	     -0.92027018	     -1.94147242	      0.33563848	      1.13240113	     -0.24435887	     -2.89942552	      5.53283758	      0.32562636	      7.55546429	      0.13186773	      3.33544979	     -5.07815811	     -7.49999987	     28.53378407	     -3.20135833	     -3.86548990	     23.40906836	      0.40856532	      4.67485496	    -11.70090587	     -7.49999987	    -10.50195189	      4.77862530	     -2.74168576	     -2.46972387	     -8.14757961	     -7.03640748	     31.33785344	     92.29513522	     -4.64856828	     -5.20353417	     -9.32265170	     34.38293904	     96.86495991
